<svg class=" " viewBox="0 0 1600 800"><path d="M924.623,106.618C930.083,115.786,949.776,123.9,964.824,128.4C981.549,133.401,1005.275,135.399,1021.106,133.173C1033.315,131.457,1049.653,127.924,1052.506,121.212C1055.033,115.268,1048.478,103.607,1042.174,96.97C1034.278,88.655,1018.577,82.928,1005.025,78.819C990.321,74.36,971.04,70.565,956.784,72.299C944.768,73.759,929.356,78.047,924.623,85.006C920.881,90.508,920.87,100.316,924.623,106.618" stroke="#71717a" stroke-width="3" fill="none" stroke-linecap="round" stroke-miterlimit="4"></path><path d="M857.937,96.97C859.882,105.247,864.591,113.757,873.344,121.212C888.14,133.815,919.998,146.744,948.744,153.658C983.625,162.048,1040.077,164.349,1069.347,161.597C1086.503,159.984,1099.485,157.593,1109.548,151.195C1117.873,145.901,1126.704,137.106,1127.669,129.293C1128.606,121.697,1122.047,112.502,1116.088,105.051C1108.892,96.052,1099.423,88.803,1085.317,80.808C1061.493,67.305,1013.091,47.1,980.905,41.033C954.915,36.134,927.022,36.425,908.057,40.404C894.964,43.151,884.622,48.296,876.382,54.636C869.317,60.072,863.332,67.155,860.302,74.464C857.448,81.345,856.211,89.623,857.937,96.97" stroke="#71717a" stroke-width="3" fill="none" stroke-linecap="round" stroke-miterlimit="4"></path><path d="M816.458,96.97C818.931,108.198,826.756,120.237,836.063,129.293C846.657,139.6,863.168,147.003,878.618,153.535C895.179,160.538,912.264,164.855,932.663,169.207C958.36,174.689,992.26,179.55,1021.106,181.503C1048.478,183.355,1077.672,183.893,1101.508,181.264C1121.005,179.114,1140.378,176.935,1154.047,169.697C1165.118,163.835,1177.332,154.984,1179.694,145.455C1182.018,136.082,1175.45,123.066,1168.71,113.131C1160.57,101.131,1146.417,91.271,1130.813,80.808C1110.166,66.963,1079.127,51.505,1053.266,40.908C1029.156,31.029,1003.724,23.213,980.905,18.318C961.171,14.085,942.657,11.469,924.623,11.533C907.919,11.592,890.523,13.41,876.382,17.696C864.229,21.38,853.467,26.16,844.221,33.693C834.576,41.552,824.635,53.369,820.101,64.454C815.952,74.597,814.157,86.524,816.458,96.97" stroke="#71717a" stroke-width="3" fill="none" stroke-linecap="round" stroke-miterlimit="4"></path><path d="M4,787.945C4,787.945,75.479,783.925,96.482,778.542C107.983,775.594,116.201,772.926,122.148,767.677C127.016,763.38,132.778,756.846,131.508,751.515C129.551,743.3,110.143,733.02,94.356,727.273C72.254,719.227,8.04,716.855,8.04,716.855" stroke="#71717a" stroke-width="3" fill="none" stroke-linecap="round" stroke-miterlimit="4"></path><path d="M1000.59,4C1000.59,4,1066.01,25.994,1096.304,40.404C1125.759,54.415,1157.64,70.834,1180.099,88.889C1198.603,103.765,1219.802,121.739,1224.465,137.374C1227.756,148.411,1225.895,160.951,1219.202,169.697C1210.249,181.398,1186.392,188.727,1165.829,193.91C1140.54,200.284,1110.039,200.444,1077.387,199.926C1036.741,199.282,982.027,193.838,940.704,186.264C905.46,179.804,869.99,171.847,844.221,160.293C824.832,151.6,807.455,142.32,796.909,129.293C787.678,117.889,781.87,103.085,781.225,88.889C780.53,73.574,786.435,54.377,795.14,40.404C804.167,25.916,835.339,4,835.339,4" stroke="#71717a" stroke-width="3" fill="none" stroke-linecap="round" stroke-miterlimit="4"></path><path d="M1071.872,630.303C1073.437,636.295,1080.448,643.307,1089.465,646.465C1106.434,652.408,1144.859,647.393,1173.869,640.609C1207.256,632.8,1254.658,612.113,1277.507,597.98C1290.613,589.874,1299.855,581.709,1305.28,573.737C1308.981,568.299,1311.849,562.751,1311.033,557.576C1310.144,551.936,1304.006,545.05,1298.627,541.414C1293.164,537.722,1287.185,536.583,1278.392,535.754C1262.713,534.277,1234.928,536.114,1211.822,541.414C1184.963,547.576,1151.154,560.269,1127.533,573.737C1107.646,585.077,1085.439,601.933,1077.387,613.485C1073.152,619.56,1070.525,625.145,1071.872,630.303" stroke="#71717a" stroke-width="3" fill="none" stroke-linecap="round" stroke-miterlimit="4"></path><path d="M172.085,796C172.085,796,212.742,778.777,220.174,767.677C225.096,760.324,225.671,750.389,223.623,743.434C221.671,736.803,216.744,731.893,209.045,726.611C194.735,716.792,164.713,706.709,136.683,700.527C100.365,692.518,8.04,689.158,8.04,689.158" stroke="#71717a" stroke-width="3" fill="none" stroke-linecap="round" stroke-miterlimit="4"></path><path d="M1051.351,4C1051.351,4,1130.509,38.096,1163.084,56.566C1190.414,72.06,1216.716,88.201,1235.214,105.051C1249.547,118.106,1263.123,134.466,1268.226,145.455C1271.09,151.623,1271.871,156.002,1271.239,161.616C1270.5,168.18,1268.397,175.932,1262.312,182.238C1252.176,192.742,1228.325,203.226,1206.03,209.028C1177.129,216.548,1139.617,216.421,1101.508,215.82C1055.376,215.093,997.206,209.196,948.744,201.042C903.742,193.471,851.96,182.986,820.101,169.978C799.341,161.502,783.446,153.171,771.859,141.171C761.934,130.891,754.72,118.933,751.975,105.051C748.749,88.739,752.284,65.57,758.378,48.485C764.255,32.011,787.051,4,787.051,4" stroke="#71717a" stroke-width="3" fill="none" stroke-linecap="round" stroke-miterlimit="4"></path><path d="M996.898,670.707C1002.072,679.265,1016.466,684.416,1029.146,687.522C1044.919,691.385,1065.114,689.589,1085.427,687.507C1109.962,684.993,1138.251,678.47,1165.829,670.875C1196.15,662.524,1230.148,650.985,1259.609,638.384C1287.409,626.493,1318.029,612.169,1338.203,597.98C1352.973,587.592,1366.446,577.624,1372.827,565.657C1378.131,555.707,1380.761,542.411,1378.039,533.333C1375.501,524.87,1367.289,517.73,1358.794,512.368C1348.467,505.849,1335.337,501.59,1318.593,500.021C1292.114,497.539,1246.238,504.292,1214.07,511.68C1185.101,518.334,1158.741,529.338,1133.668,540.162C1110.4,550.208,1087.658,561.883,1068.328,573.737C1051.572,584.013,1035.943,594.343,1023.583,606.061C1012.757,616.325,1001.115,627.38,996.985,639.024C993.413,649.094,992.07,662.719,996.898,670.707" stroke="#71717a" stroke-width="3" fill="none" stroke-linecap="round" stroke-miterlimit="4"></path><path d="M266.246,796C266.246,796,285.745,783.725,291.379,775.758C296.406,768.648,300.142,759.55,299.904,751.515C299.662,743.388,295.642,734.599,289.726,727.273C282.22,717.976,270.276,710.007,255.018,703.03C231.719,692.376,195.147,684.44,159.322,678.788C114.925,671.784,8.04,668.964,8.04,668.964" stroke="#71717a" stroke-width="3" fill="none" stroke-linecap="round" stroke-miterlimit="4"></path><path d="M1090.134,4C1090.134,4,1162.734,37.583,1195.185,56.566C1225.273,74.165,1258.406,94.306,1278.831,113.131C1293.459,126.614,1306.112,141.069,1311.239,153.535C1314.757,162.087,1315.054,170.674,1313.779,177.778C1312.683,183.888,1309.761,188.946,1305.782,193.939C1301.044,199.884,1294.201,205.429,1285.984,210.101C1275.411,216.113,1262.935,221.008,1246.231,224.586C1219.943,230.218,1181.464,232.634,1141.709,232.192C1088.779,231.603,1015.238,223.583,956.784,214.595C903.182,206.354,841.799,195.365,804.02,181.995C780.058,173.515,761.52,165.328,747.996,153.535C737.294,144.205,729.7,134.238,725.566,121.212C720.608,105.594,721.361,83.442,725.109,64.646C729.155,44.361,750.877,4,750.877,4" stroke="#71717a" stroke-width="3" fill="none" stroke-linecap="round" stroke-miterlimit="4"></path><path d="M925.406,678.788C924.885,686.544,925.301,696.153,930.168,703.03C936.379,711.808,950.885,719.56,964.824,723.484C982.448,728.445,1006.127,726.631,1029.146,724.488C1056.412,721.949,1085.316,714.973,1117.588,706.44C1157.939,695.77,1209.945,678.852,1251.732,662.626C1289.874,647.816,1329.964,631.237,1358.84,614.141C1380.687,601.208,1401.242,586.638,1412.659,573.737C1420.019,565.421,1424.246,557.885,1426.606,549.495C1428.804,541.682,1429.848,533.454,1427.247,525.253C1423.893,514.678,1413.82,501.22,1403.145,492.929C1391.502,483.887,1374.787,478.306,1358.794,474.665C1341.455,470.719,1322.379,470.291,1302.513,471.457C1279.833,472.787,1255.639,477.572,1230.151,484.187C1200.312,491.931,1166.528,503.959,1135.011,517.172C1102.194,530.929,1066.377,548.31,1037.197,565.657C1011.55,580.903,986.527,597.124,968.192,614.141C953.249,628.011,939.594,644.993,932.663,657.457C928.268,665.361,925.903,671.381,925.406,678.788" stroke="#71717a" stroke-width="3" fill="none" stroke-linecap="round" stroke-miterlimit="4"></path><path d="M355.669,796C355.669,796,371.893,777.889,374.175,767.677C376.417,757.646,373.897,744.826,369.651,735.354C365.461,726.005,357.995,718.486,349.082,711.111C337.995,701.938,324.611,693.937,306.275,686.869C278.104,676.009,235.615,667.332,192.965,661.461C139.105,654.046,8.04,651.645,8.04,651.645" stroke="#71717a" stroke-width="3" fill="none" stroke-linecap="round" stroke-miterlimit="4"></path><path d="M1123.939,4C1123.939,4,1205.107,43.722,1239.978,64.646C1270.496,82.959,1302.387,101.143,1322.779,121.212C1338.471,136.655,1353.04,155.686,1357.051,169.697C1359.616,178.657,1357.84,186.908,1355.652,193.939C1353.722,200.144,1350.617,204.886,1345.839,210.101C1339.451,217.073,1328.674,224.77,1318.593,230.096C1308.035,235.674,1298.808,239.316,1283.633,242.424C1257.494,247.779,1216.911,250.505,1173.869,249.58C1112.113,248.253,1019.023,236.16,948.744,225.155C885.985,215.327,813.161,203.191,771.859,188.82C747.97,180.508,730.841,173.122,717.916,161.616C707.568,152.404,700.484,142.252,696.594,129.293C691.892,113.63,693.4,92.23,696.587,72.727C700.194,50.648,719.669,4,719.669,4" stroke="#71717a" stroke-width="3" fill="none" stroke-linecap="round" stroke-miterlimit="4"></path><path d="M858.802,743.434C862.816,749.749,868.185,754.354,876.382,758.224C889.32,764.331,911.754,768.206,932.663,768.623C958.789,769.143,988.326,763.215,1021.106,755.902C1063.761,746.387,1117.36,728.31,1165.829,711.749C1215.885,694.647,1272.216,673.988,1316.728,654.545C1353.449,638.506,1389.267,624.248,1415.075,605.664C1435.369,591.05,1454.886,571.916,1463.021,557.576C1467.958,548.873,1468.895,541.443,1469.162,533.333C1469.428,525.281,1468.854,517.576,1464.696,509.091C1458.533,496.512,1443.833,478.873,1428.613,468.687C1411.879,457.488,1388.573,450.539,1366.834,446.993C1343.98,443.266,1320.102,444.568,1294.472,448.034C1264.391,452.101,1232.474,461.368,1197.99,473.127C1155.892,487.482,1104.18,509.83,1061.307,531.369C1020.872,551.683,979.538,574.072,947.173,597.98C919.669,618.298,893.076,640.056,876.965,662.626C864.031,680.747,853.41,703.881,852.261,718.964C851.524,728.643,854.586,736.804,858.802,743.434" stroke="#71717a" stroke-width="3" fill="none" stroke-linecap="round" stroke-miterlimit="4"></path><path d="M476.473,796C476.473,796,479.215,777.47,476.14,767.677C472.102,754.816,459.953,739.208,448.694,727.273C436.958,714.833,421.954,704.246,406.608,694.949C390.618,685.264,376.167,677.864,354.349,670.707C321.341,659.88,274.021,650.464,225.126,644.568C162.357,637,8.04,635.793,8.04,635.793" stroke="#71717a" stroke-width="3" fill="none" stroke-linecap="round" stroke-miterlimit="4"></path><path d="M1155.089,4C1155.089,4,1258.599,55.837,1298.51,80.808C1329.244,100.038,1358.877,117.077,1376.667,137.374C1390.111,152.712,1400.68,172.142,1402.844,185.859C1404.291,195.033,1401.584,202.604,1398.38,210.101C1395.063,217.861,1391.007,224.548,1382.915,231.504C1369.521,243.016,1342.991,257.841,1318.593,264.576C1290.385,272.363,1263.401,272.062,1222.111,270.739C1147.443,268.346,998.331,245.312,908.543,230.428C840.221,219.103,768.651,208.08,729.171,193.939C708.172,186.418,694.246,180.306,683.412,169.697C674.254,160.729,668.349,150.143,665.41,137.374C661.773,121.573,665.099,100.889,668.562,80.808C672.677,56.937,691.132,4,691.132,4" stroke="#71717a" stroke-width="3" fill="none" stroke-linecap="round" stroke-miterlimit="4"></path><path d="M735.19,796C735.19,796,734.502,777.536,737.847,767.677C742.178,754.91,750.743,742.782,763.213,727.273C784.444,700.866,825.125,659.425,861.821,630.303C900.167,599.872,942.575,575.341,989.393,549.495C1042.649,520.095,1113.048,487.08,1165.829,465.528C1207.024,448.707,1243.621,434.703,1278.392,426.827C1307.063,420.333,1332.171,415.69,1358.794,417.593C1385.777,419.521,1416.407,426.616,1439.196,438.729C1460.099,449.839,1480.805,468.425,1491.78,484.848C1500.352,497.676,1504.602,512.422,1505.503,525.253C1506.295,536.518,1503.943,547.309,1499.382,557.576C1494.318,568.977,1484.476,580.504,1474.862,589.899C1465.153,599.387,1457.005,605.041,1441.329,614.141C1410.846,631.836,1355.918,655.096,1298.854,678.788C1215.82,713.262,988.945,795.824,988.945,795.824" stroke="#71717a" stroke-width="3" fill="none" stroke-linecap="round" stroke-miterlimit="4"></path><path d="M1061.56,796C1061.56,796,1342.795,681.826,1417.239,646.465C1452.39,629.767,1473.886,620.264,1493.185,606.061C1507.291,595.679,1518.138,585.369,1525.861,573.737C1532.584,563.612,1537.062,553.011,1538.827,541.414C1540.732,528.903,1539.411,514.099,1535.614,501.01C1531.584,487.115,1523.996,473.287,1514.308,460.606C1503.318,446.222,1487.532,431.812,1471.357,420.492C1454.593,408.759,1434.307,398.535,1415.075,391.904C1396.743,385.583,1377.589,381.235,1358.794,380.841C1340.068,380.448,1328.025,381.944,1302.513,389.468C1240.914,407.633,1098.468,474.968,999.634,525.253C900.113,575.887,775.741,662.971,707.538,692.435C673.454,707.159,653.499,714.034,627.136,716.93C602.638,719.622,582.85,717.523,554.774,711.356C512.673,702.109,446.188,667.816,401.789,654.545C368.724,644.662,344.943,639.332,313.568,634.323C278.505,628.725,243.6,626.325,201.005,624.017C145.347,621.001,8.04,620.743,8.04,620.743" stroke="#71717a" stroke-width="3" fill="none" stroke-linecap="round" stroke-miterlimit="4"></path><path d="M149.734,274.747C165.44,281.331,185.344,286.113,207.73,290.909C237.579,297.305,281.605,306.516,313.568,306.945C339.948,307.298,367.17,303.515,385.93,297.96C398.857,294.132,409.64,289.029,417.076,282.828C422.734,278.111,428.698,272.134,428.933,266.667C429.162,261.355,423.956,254.486,419.089,250.505C413.638,246.047,406.765,244.656,396.773,242.424C378.026,238.237,345.515,235.554,313.568,234.743C270.353,233.646,194.199,236.145,160.804,241.055C144.134,243.506,129.41,245.828,123.896,250.505C121.342,252.671,119.756,255.407,120.603,257.987C122.32,263.219,137.999,269.829,149.734,274.747" stroke="#71717a" stroke-width="3" fill="none" stroke-linecap="round" stroke-miterlimit="4"></path><path d="M1184.827,4C1184.827,4,1314.662,67.97,1359.325,96.97C1389.79,116.751,1417.633,137.43,1431.873,153.535C1439.765,162.461,1443.477,168.743,1446.386,177.778C1449.503,187.458,1452.001,198.585,1449.093,210.101C1445.065,226.053,1429.854,248.083,1415.075,262.223C1399.928,276.716,1379.557,288.725,1358.794,295.51C1336.9,302.664,1322.157,303.795,1286.432,302.593C1182.702,299.104,762.242,228.628,681.744,202.02C660.351,194.949,651.975,191.334,643.216,182.272C635.715,174.512,631.162,167.209,629.699,153.535C626.484,123.477,664.162,4,664.162,4" stroke="#71717a" stroke-width="3" fill="none" stroke-linecap="round" stroke-miterlimit="4"></path><path d="M4,287.962C4,287.962,191.055,325.228,257.286,332.324C299.53,336.851,332.424,338.715,361.809,336.517C383.558,334.89,400.463,330.903,418.09,325.726C434.567,320.888,447.128,317.447,464.55,307.071C492.37,290.501,532.78,237.524,562.814,225.556C582.777,217.601,593.96,221.407,619.095,221.84C670.33,222.722,775.293,235.071,852.261,245.317C928.392,255.452,1012.52,267.859,1078.442,282.828C1130.881,294.736,1190.94,310.767,1217.779,323.232C1229.813,328.821,1236.956,333.112,1242.057,339.394C1245.998,344.247,1249.379,349.524,1248.523,355.556C1247.21,364.812,1234.962,377.53,1223.313,387.879C1207.241,402.156,1188.573,410.596,1156.568,428.283C1080.609,470.262,853.784,587.375,763.819,625.52C718.66,644.668,693.935,655.805,659.296,662.1C626.96,667.976,599.537,668.1,562.814,664.307C512.437,659.103,434.943,632.287,385.93,623.126C351.556,616.702,335.674,613.581,297.487,610.592C228.266,605.173,4,606.061,4,606.061" stroke="#71717a" stroke-width="3" fill="none" stroke-linecap="round" stroke-miterlimit="4"></path><path d="M1112.05,796C1112.05,796,1174.488,763.628,1219.122,743.434C1290.834,710.99,1449.674,656.19,1503.518,625.41C1527.096,611.931,1539.069,604.394,1550.691,589.899C1561.728,576.134,1569.958,557.188,1572.704,541.414C1575.099,527.651,1572.953,514.778,1569.401,501.01C1565.333,485.241,1559.481,471.006,1547.549,452.525C1527.449,421.395,1455.984,367.175,1447.683,339.394C1443.822,326.471,1447.93,319.763,1452.32,307.071C1459.741,285.616,1492.52,247.758,1498.962,226.263C1502.757,213.6,1502.538,203.765,1500.866,193.939C1499.36,185.088,1497.196,178.592,1490.732,169.697C1478.986,153.531,1454.605,133.166,1424.923,113.131C1375.829,79.994,1214.07,4.043,1214.07,4.043" stroke="#71717a" stroke-width="3" fill="none" stroke-linecap="round" stroke-miterlimit="4"></path><path d="M637.936,4C637.936,4,602.28,114.479,586.935,147.143C578.38,165.352,572.007,177.634,562.814,187.738C555.503,195.774,553.237,200.585,538.693,205.343C477.383,225.401,8.04,206.344,8.04,206.344" stroke="#71717a" stroke-width="3" fill="none" stroke-linecap="round" stroke-miterlimit="4"></path><path d="M611.919,4C611.919,4,598.684,52.29,589.74,72.727C581.943,90.542,573.341,107.026,562.814,120.538C553.348,132.688,542.748,143.038,530.653,151.107C518.615,159.139,508.686,164.183,490.452,168.899C456.394,177.709,398.353,180.257,337.688,182.615C248.749,186.072,8.04,178.712,8.04,178.712" stroke="#71717a" stroke-width="3" fill="none" stroke-linecap="round" stroke-miterlimit="4"></path><path d="M4,315.271C4,315.271,205.98,351.666,273.367,357.843C313.456,361.517,337.916,363.788,369.849,360.357C402.245,356.877,431.373,349.949,466.332,336.736C512.395,319.325,569.759,270.758,619.095,256.692C660.408,244.913,695.691,247.253,739.698,247.89C793.062,248.663,859.23,257.282,916.583,265.96C971.669,274.296,1032.766,285.245,1077.387,298.316C1110.61,308.048,1145.094,320.606,1162.12,331.313C1170.807,336.776,1175.9,341.527,1179.419,347.475C1182.372,352.467,1184.259,357.86,1183.529,363.636C1182.588,371.072,1176.526,380.362,1170.266,387.879C1162.885,396.743,1154.191,402.814,1140.45,412.121C1114.895,429.429,1069.969,453.261,1024.335,476.768C961.397,509.188,860.749,559.29,795.98,585.202C750.079,603.565,714.619,617.503,675.377,624.872C639.745,631.563,613.784,632.502,570.854,630.464C501.093,627.154,390.489,596.253,297.487,589.624C201.654,582.793,4,591.381,4,591.381" stroke="#71717a" stroke-width="3" fill="none" stroke-linecap="round" stroke-miterlimit="4"></path><path d="M1155.006,796C1155.006,796,1228.097,756.748,1276.27,735.354C1343.827,705.349,1476.813,661.312,1524.674,638.384C1545.122,628.588,1554.751,623.863,1566.885,614.141C1578.306,604.991,1596,582.329,1596,582.329" stroke="#71717a" stroke-width="3" fill="none" stroke-linecap="round" stroke-miterlimit="4"></path><path d="M1596,478.929C1596,478.929,1528.523,370.264,1522.037,339.394C1519.099,325.409,1521.276,320.2,1524.408,307.071C1529.806,284.438,1557.703,238.804,1561.476,218.182C1563.369,207.832,1562.592,201.825,1560.671,193.939C1558.65,185.642,1556.354,178.439,1549.117,169.697C1535.457,153.197,1505.71,133.318,1471.95,113.131C1417.01,80.28,1243.272,4,1243.272,4" stroke="#71717a" stroke-width="3" fill="none" stroke-linecap="round" stroke-miterlimit="4"></path><path d="M585.611,4C585.611,4,576.428,39.991,568.641,56.566C560.812,73.23,549.99,90.959,538.693,103.686C528.95,114.664,518.985,122.655,506.533,129.968C492.615,138.142,480.083,143.952,458.291,149.065C417.078,158.736,340.614,162.789,273.367,164.638C192.942,166.848,8.04,156.929,8.04,156.929" stroke="#71717a" stroke-width="3" fill="none" stroke-linecap="round" stroke-miterlimit="4"></path><path d="M4,336.431C4,336.431,212.642,374.587,281.407,380.791C321.71,384.427,345.348,386.629,377.889,382.853C412.305,378.86,445.1,369.975,482.412,355.898C529.412,338.166,595.998,292.259,635.176,278.463C657.88,270.468,671.408,269.111,691.457,266.584C713.955,263.748,736.274,262.906,763.819,263.489C800.596,264.268,849.738,268.524,892.462,274.462C935.503,280.444,982.941,288.633,1021.106,299.352C1053.013,308.313,1087.545,317.516,1106.938,331.313C1120.06,340.648,1131.791,353.119,1133.644,363.636C1135.094,371.875,1129.946,380.347,1125.017,387.879C1119.234,396.716,1111.527,402.928,1099.189,412.121C1075.686,429.634,1029.966,455.106,988.083,476.768C936.704,503.34,866.797,536.389,812.06,556.993C766.445,574.163,725.298,588.459,683.417,595.716C645.057,602.363,615.926,603.192,570.854,601.436C502.473,598.772,403.481,572.753,313.568,568.153C215.333,563.128,4,576.333,4,576.333" stroke="#71717a" stroke-width="3" fill="none" stroke-linecap="round" stroke-miterlimit="4"></path><path d="M1194.803,796C1194.803,796,1279.901,750.675,1334.382,727.273C1407.327,695.939,1596,630.617,1596,630.617" stroke="#71717a" stroke-width="3" fill="none" stroke-linecap="round" stroke-miterlimit="4"></path><path d="M1596,393.396C1596,393.396,1582.813,356.621,1583.152,339.394C1583.467,323.431,1596,293.499,1596,293.499" stroke="#71717a" stroke-width="3" fill="none" stroke-linecap="round" stroke-miterlimit="4"></path><path d="M1596,131.458C1596,131.458,1478.312,91.43,1423.116,69.493C1371.051,48.802,1273.413,4,1273.413,4" stroke="#71717a" stroke-width="3" fill="none" stroke-linecap="round" stroke-miterlimit="4"></path><path d="M558.483,4C558.483,4,550.63,34.505,543.513,48.485C536.202,62.848,525.729,77.818,514.845,88.889C504.953,98.95,494.413,106.362,481.879,113.131C467.899,120.682,455.701,126.008,434.171,130.89C393.053,140.214,315.03,146.021,249.246,147.514C174.23,149.216,8.04,136.824,8.04,136.824" stroke="#71717a" stroke-width="3" fill="none" stroke-linecap="round" stroke-miterlimit="4"></path><path d="M4,355.933C4,355.933,221.224,398.451,289.447,405.38C327.152,409.209,347.421,411.448,377.889,408.113C411.527,404.431,443.455,395.795,482.412,381.541C536.205,361.858,610.959,307.916,667.337,291.624C710.644,279.11,747.722,278.616,787.94,278.298C828.124,277.98,869.978,283.454,908.543,289.698C944.832,295.573,984.034,303.945,1013.065,313.815C1035.054,321.291,1056.591,330.639,1069.033,339.394C1076.57,344.697,1081.562,349.689,1084.803,355.556C1087.584,360.59,1089.928,365.455,1088.694,371.717C1086.557,382.561,1074.283,398.639,1059.516,412.121C1035.954,433.634,989.552,456.781,950.33,476.768C907.596,498.544,857.121,520.708,812.06,536.532C771.005,550.948,731.311,563.24,691.457,569.575C653.624,575.59,623.682,576.753,578.894,574.969C512.015,572.304,418.435,546.296,329.648,543.013C228.502,539.273,4,560.484,4,560.484" stroke="#71717a" stroke-width="3" fill="none" stroke-linecap="round" stroke-miterlimit="4"></path><path d="M1233.812,796C1233.812,796,1334.16,743.226,1390.955,721.824C1453.884,698.11,1596,662.921,1596,662.921" stroke="#71717a" stroke-width="3" fill="none" stroke-linecap="round" stroke-miterlimit="4"></path><path d="M1596,78.704C1596,78.704,1567.827,82.887,1551.759,82.098C1532.263,81.14,1513.94,77.878,1487.437,70.742C1441.77,58.445,1305.347,4,1305.347,4" stroke="#71717a" stroke-width="3" fill="none" stroke-linecap="round" stroke-miterlimit="4"></path><path d="M529.929,4C529.929,4,523.316,28.897,517.061,40.404C510.412,52.635,501.24,65.047,490.452,74.971C479.156,85.363,464.755,94.081,450.251,100.889C435.337,107.891,423.615,111.872,402.01,116.087C360.632,124.159,280.633,130.472,217.085,130.936C149.556,131.43,8.04,117.22,8.04,117.22" stroke="#71717a" stroke-width="3" fill="none" stroke-linecap="round" stroke-miterlimit="4"></path><path d="M4,375.552C4,375.552,89.556,385.8,136.683,395.451C191.694,406.716,268.932,435.181,313.568,441.583C340.051,445.381,354.165,446.768,377.889,443.5C408.842,439.236,443.077,426.958,482.412,410.755C537.817,387.932,618.308,329.517,675.377,310.815C716.7,297.272,752.532,294.767,787.94,293.169C819.274,291.754,847.535,295.016,876.979,298.99C906.498,302.973,939.285,309.316,964.824,317.071C985.576,323.371,1006.525,331.441,1019.667,339.394C1028.211,344.565,1034.509,349.577,1038.783,355.556C1042.34,360.533,1044.756,366.276,1045.091,371.717C1045.42,377.052,1043.923,382.32,1040.979,387.879C1036.877,395.626,1029.972,403.357,1019.507,412.121C1000.954,427.658,964.659,448.784,932.663,465.174C896.382,483.759,851.294,502.677,812.06,515.936C776.421,527.98,744.498,537.684,707.538,543.004C667.183,548.813,627.899,550.654,578.894,547.191C512.435,542.494,421.423,507.498,345.729,506.293C274.238,505.155,198.6,530.089,136.683,536.137C87.569,540.935,4,543.168,4,543.168" stroke="#71717a" stroke-width="3" fill="none" stroke-linecap="round" stroke-miterlimit="4"></path><path d="M1273.914,796C1273.914,796,1317.361,770.688,1341.452,759.596C1367.501,747.602,1391.846,737.163,1425.135,727.273C1471.586,713.472,1596,691.032,1596,691.032" stroke="#71717a" stroke-width="3" fill="none" stroke-linecap="round" stroke-miterlimit="4"></path><path d="M1596,36.352C1596,36.352,1573.491,48.413,1559.799,51.189C1543.376,54.519,1523.34,53.786,1503.518,51.817C1480.793,49.56,1456.376,43.617,1431.156,36.457C1402.391,28.291,1340.568,4,1340.568,4" stroke="#71717a" stroke-width="3" fill="none" stroke-linecap="round" stroke-miterlimit="4"></path><path d="M499.052,4C499.052,4,490.444,29.809,483.425,40.404C476.705,50.545,468.348,58.931,458.291,66.595C447.005,75.195,432.457,82.611,418.09,88.365C403.067,94.382,391.211,97.865,369.849,101.485C329.619,108.303,252.804,114.518,192.965,113.929C131.219,113.32,4.925,96.97,4.925,96.97" stroke="#71717a" stroke-width="3" fill="none" stroke-linecap="round" stroke-miterlimit="4"></path><path d="M4,397.205C4,397.205,119.194,416.125,152.764,426.699C170.856,432.399,181.967,436.787,193.082,444.444C202.855,451.178,216.808,460.511,217.009,468.687C217.205,476.676,205.113,486.535,195.327,492.929C182.962,501.009,166.982,504.682,145.978,509.091C111.164,516.399,4,522.953,4,522.953" stroke="#71717a" stroke-width="3" fill="none" stroke-linecap="round" stroke-miterlimit="4"></path><path d="M525.401,428.283C549.995,407.597,605.104,373.349,636.132,355.556C657.315,343.408,673.323,335.073,691.457,328.13C707.787,321.878,721.393,317.805,739.698,314.723C762.918,310.815,792.703,308.83,820.101,309.695C848.921,310.605,881.705,314.565,908.543,320.862C932.003,326.366,956.947,332.922,972.864,343.276C984.904,351.107,997.668,361.281,999.504,371.717C1001.249,381.63,994.118,393.717,985.675,404.04C973.412,419.036,947.996,433.112,924.623,446.171C896.758,461.739,860.749,477.211,828.141,488.674C796.404,499.831,762.58,508.96,731.658,514.46C703.856,519.406,678.043,522.07,651.256,521.792C624.441,521.513,595.771,519.023,570.854,512.771C547.801,506.986,518.328,494.933,506.533,487.082C501.144,483.496,498.344,481.006,496.406,476.768C494.354,472.278,493.058,466.419,495.088,460.606C498.444,450.996,511.177,440.247,525.401,428.283" stroke="#71717a" stroke-width="3" fill="none" stroke-linecap="round" stroke-miterlimit="4"></path><path d="M1317.525,796C1317.525,796,1365.069,769.781,1389.523,759.596C1413.383,749.659,1437.865,741.783,1462.401,735.354C1486.59,729.015,1512.341,723.844,1535.678,721.154C1556.666,718.736,1596,718.856,1596,718.856" stroke="#71717a" stroke-width="3" fill="none" stroke-linecap="round" stroke-miterlimit="4"></path><path d="M1585.158,4C1585.158,4,1563.858,19.412,1551.759,23.71C1539.371,28.109,1526.108,29.39,1511.558,29.763C1494.397,30.203,1475.046,27.905,1455.276,24.22C1432.496,19.974,1382.915,4.164,1382.915,4.164" stroke="#71717a" stroke-width="3" fill="none" stroke-linecap="round" stroke-miterlimit="4"></path><path d="M464.47,4C464.47,4,457.189,23.793,450.845,32.323C444.06,41.446,434.559,49.712,424.306,56.566C413.173,64.008,400.232,69.595,385.93,74.553C369.229,80.342,353.181,84.316,329.648,87.672C291.36,93.134,229.015,97.491,176.884,95.983C121.946,94.393,8.04,76.958,8.04,76.958" stroke="#71717a" stroke-width="3" fill="none" stroke-linecap="round" stroke-miterlimit="4"></path><path d="M4,426.362C4,426.362,68.265,438.398,83.713,444.444C90.584,447.134,94.213,448.631,97.724,452.525C101.396,456.599,106.387,463.843,104.934,468.687C103.04,474.997,90.898,480.734,79.612,484.848C61.631,491.405,4,494.828,4,494.828" stroke="#71717a" stroke-width="3" fill="none" stroke-linecap="round" stroke-miterlimit="4"></path><path d="M620.447,404.04C635.428,390.409,655.415,375.073,677.214,363.636C702.279,350.486,736.707,337.691,763.819,332.242C786.488,327.686,806.753,328.019,828.141,329.094C849.635,330.174,873.794,333.566,892.462,338.772C907.757,343.037,923.036,347.614,932.765,355.556C940.735,362.061,948.682,371.557,949.217,379.798C949.731,387.73,943.784,396.207,937.004,404.04C927.234,415.329,908.422,426.581,890.818,436.364C870.258,447.789,844.162,458.472,820.101,466.58C796.345,474.584,771.021,480.975,747.404,484.848C725.549,488.433,704.032,490.484,683.417,489.908C664.025,489.366,643.199,488.013,627.136,482.274C613.428,477.377,596.85,469.715,591.906,460.606C588.119,453.631,589.376,444.46,592.505,436.364C596.658,425.617,608.716,414.715,620.447,404.04" stroke="#71717a" stroke-width="3" fill="none" stroke-linecap="round" stroke-miterlimit="4"></path><path d="M1369.189,796C1369.189,796,1410.55,775.069,1430.987,767.677C1449.943,760.821,1468.496,756.011,1487.437,752.397C1506.078,748.839,1525.292,746.254,1543.719,746.022C1561.455,745.798,1596,750.612,1596,750.612" stroke="#71717a" stroke-width="3" fill="none" stroke-linecap="round" stroke-miterlimit="4"></path><path d="M1521.872,4L1449.572,4" stroke="#71717a" stroke-width="3" fill="none" stroke-linecap="round" stroke-miterlimit="4"></path><path d="M423.692,4C423.692,4,416.407,19.626,410.05,26.5C402.445,34.725,393.283,42.047,379.465,48.485C357.123,58.894,318.659,68.011,284.025,72.727C244.033,78.173,197.469,78.339,152.764,75.605C105.582,72.718,8.04,54.603,8.04,54.603" stroke="#71717a" stroke-width="3" fill="none" stroke-linecap="round" stroke-miterlimit="4"></path><path d="M723.624,379.798C739.283,370.137,760.19,362.578,779.899,359.208C800.32,355.715,826.446,355.229,844.221,359.978C858.341,363.75,875.711,372.029,879.643,379.798C882.133,384.719,880.156,390.957,877.635,395.96C874.579,402.024,869.117,406.954,860.302,412.458C842.797,423.387,799.484,440.52,771.859,445.297C748.942,449.259,721.917,449.76,706.94,444.444C697.452,441.077,688.866,434.453,686.498,428.283C684.621,423.388,686.174,417.866,689.258,412.121C694.488,402.376,709.729,388.37,723.624,379.798" stroke="#71717a" stroke-width="3" fill="none" stroke-linecap="round" stroke-miterlimit="4"></path><path d="M1448.107,796C1448.107,796,1496.617,781.128,1519.598,781.455C1541.125,781.762,1581.943,796,1581.943,796" stroke="#71717a" stroke-width="3" fill="none" stroke-linecap="round" stroke-miterlimit="4"></path><path d="M371.013,4C371.013,4,359.46,18.652,351.701,24.242C343.241,30.338,334.631,34.272,321.608,38.401C300.208,45.187,264.544,51.776,233.166,53.978C198.025,56.444,157.953,54.412,120.603,50.124C82.908,45.796,8.04,27.963,8.04,27.963" stroke="#71717a" stroke-width="3" fill="none" stroke-linecap="round" stroke-miterlimit="4"></path><path d="M285.37,4C285.37,4,263.308,15.293,249.246,18.744C231.151,23.186,210.087,25.597,184.925,24.8C148.844,23.657,53.725,4,53.725,4" stroke="#71717a" stroke-width="3" fill="none" stroke-linecap="round" stroke-miterlimit="4"></path></svg>